<svg width="665" height="67" viewBox="0 0 665 67" fill="none" xmlns="http://www.w3.org/2000/svg">
<rect x="113" width="429" height="51" fill="black"/>
<path d="M94 38L113.5 30.2058V45.7942L94 38Z" fill="black"/>
<path d="M146.269 29.24H140.989V38H136.459V17.06H140.989V25.55H146.269V17.06H150.799V38H146.269V29.24ZM162.037 38.36C159.437 38.36 157.467 37.64 156.127 36.2C154.787 34.76 154.117 32.8 154.117 30.32C154.117 29.06 154.287 27.93 154.627 26.93C154.987 25.91 155.487 25.05 156.127 24.35C156.787 23.63 157.577 23.09 158.497 22.73C159.437 22.35 160.487 22.16 161.647 22.16C162.807 22.16 163.847 22.35 164.767 22.73C165.687 23.09 166.467 23.61 167.107 24.29C167.747 24.97 168.237 25.8 168.577 26.78C168.937 27.74 169.117 28.82 169.117 30.02V31.34H158.527V31.61C158.527 32.61 158.837 33.42 159.457 34.04C160.077 34.64 160.987 34.94 162.187 34.94C163.107 34.94 163.897 34.77 164.557 34.43C165.217 34.07 165.787 33.6 166.267 33.02L168.667 35.63C168.067 36.37 167.227 37.01 166.147 37.55C165.067 38.09 163.697 38.36 162.037 38.36ZM161.677 25.34C160.717 25.34 159.947 25.64 159.367 26.24C158.807 26.82 158.527 27.61 158.527 28.61V28.85H164.767V28.61C164.767 27.59 164.487 26.79 163.927 26.21C163.387 25.63 162.637 25.34 161.677 25.34ZM172.645 34.55H177.385V19.25H172.645V15.8H181.825V34.55H186.565V38H172.645V34.55ZM190.634 34.55H195.374V19.25H190.634V15.8H199.814V34.55H204.554V38H190.634V34.55ZM215.582 38.36C214.382 38.36 213.302 38.18 212.342 37.82C211.382 37.44 210.562 36.9 209.882 36.2C209.222 35.5 208.712 34.65 208.352 33.65C207.992 32.65 207.812 31.52 207.812 30.26C207.812 29 207.992 27.87 208.352 26.87C208.712 25.87 209.222 25.02 209.882 24.32C210.562 23.62 211.382 23.09 212.342 22.73C213.302 22.35 214.382 22.16 215.582 22.16C216.782 22.16 217.862 22.35 218.822 22.73C219.782 23.09 220.592 23.62 221.252 24.32C221.932 25.02 222.452 25.87 222.812 26.87C223.172 27.87 223.352 29 223.352 30.26C223.352 31.52 223.172 32.65 222.812 33.65C222.452 34.65 221.932 35.5 221.252 36.2C220.592 36.9 219.782 37.44 218.822 37.82C217.862 38.18 216.782 38.36 215.582 38.36ZM215.582 35.06C216.582 35.06 217.362 34.75 217.922 34.13C218.482 33.51 218.762 32.63 218.762 31.49V29.03C218.762 27.89 218.482 27.01 217.922 26.39C217.362 25.77 216.582 25.46 215.582 25.46C214.582 25.46 213.802 25.77 213.242 26.39C212.682 27.01 212.402 27.89 212.402 29.03V31.49C212.402 32.63 212.682 33.51 213.242 34.13C213.802 34.75 214.582 35.06 215.582 35.06ZM231.38 32.78H237.08L232.97 42.53H229.67L231.38 32.78ZM262.947 38V17.06H276.327V20.75H267.447V25.55H276.027V29.24H267.447V34.31H276.327V38H262.947ZM278.745 22.52H282.435L283.545 35.06H283.845L285.675 22.52H289.575L291.375 35.06H291.675L292.815 22.52H296.325L294.495 38H289.215L287.685 27.32H287.385L285.855 38H280.575L278.745 22.52ZM298.473 15.8H302.913V25.34H303.093C303.273 24.9 303.493 24.49 303.753 24.11C304.013 23.73 304.323 23.4 304.683 23.12C305.063 22.82 305.493 22.59 305.973 22.43C306.473 22.25 307.033 22.16 307.653 22.16C308.393 22.16 309.073 22.29 309.693 22.55C310.313 22.79 310.843 23.16 311.283 23.66C311.723 24.16 312.063 24.77 312.303 25.49C312.563 26.21 312.693 27.04 312.693 27.98V38H308.253V28.58C308.253 26.58 307.383 25.58 305.643 25.58C305.303 25.58 304.963 25.63 304.623 25.73C304.303 25.81 304.013 25.95 303.753 26.15C303.493 26.33 303.283 26.56 303.123 26.84C302.983 27.12 302.913 27.45 302.913 27.83V38H298.473V15.8ZM329.122 38C328.202 38 327.462 37.77 326.902 37.31C326.342 36.83 326.012 36.15 325.912 35.27H325.762C325.482 36.29 324.922 37.06 324.082 37.58C323.262 38.1 322.252 38.36 321.052 38.36C319.552 38.36 318.342 37.96 317.422 37.16C316.522 36.34 316.072 35.2 316.072 33.74C316.072 32.12 316.662 30.92 317.842 30.14C319.022 29.36 320.752 28.97 323.032 28.97H325.522V28.19C325.522 27.27 325.302 26.58 324.862 26.12C324.442 25.64 323.722 25.4 322.702 25.4C321.762 25.4 321.002 25.58 320.422 25.94C319.842 26.3 319.342 26.77 318.922 27.35L316.492 25.19C317.012 24.31 317.822 23.59 318.922 23.03C320.042 22.45 321.472 22.16 323.212 22.16C325.332 22.16 326.982 22.65 328.162 23.63C329.362 24.59 329.962 26.05 329.962 28.01V34.79H331.672V38H329.122ZM322.732 35.45C323.512 35.45 324.172 35.26 324.712 34.88C325.252 34.5 325.522 33.95 325.522 33.23V31.37H323.152C321.332 31.37 320.422 31.98 320.422 33.2V33.8C320.422 34.34 320.632 34.75 321.052 35.03C321.472 35.31 322.032 35.45 322.732 35.45ZM362.278 35.18H362.068C361.668 36.12 361.108 36.89 360.388 37.49C359.688 38.07 358.718 38.36 357.478 38.36C356.618 38.36 355.828 38.2 355.108 37.88C354.408 37.56 353.798 37.07 353.278 36.41C352.778 35.75 352.378 34.91 352.078 33.89C351.798 32.87 351.658 31.66 351.658 30.26C351.658 28.86 351.798 27.65 352.078 26.63C352.378 25.61 352.778 24.77 353.278 24.11C353.798 23.45 354.408 22.96 355.108 22.64C355.828 22.32 356.618 22.16 357.478 22.16C358.098 22.16 358.648 22.24 359.128 22.4C359.608 22.56 360.028 22.78 360.388 23.06C360.768 23.34 361.088 23.68 361.348 24.08C361.628 24.46 361.868 24.88 362.068 25.34H362.278V15.8H366.718V38H362.278V35.18ZM359.398 34.91C360.178 34.91 360.848 34.72 361.408 34.34C361.988 33.96 362.278 33.36 362.278 32.54V27.98C362.278 27.16 361.988 26.56 361.408 26.18C360.848 25.8 360.178 25.61 359.398 25.61C358.398 25.61 357.628 25.92 357.088 26.54C356.548 27.14 356.278 27.98 356.278 29.06V31.46C356.278 32.54 356.548 33.39 357.088 34.01C357.628 34.61 358.398 34.91 359.398 34.91ZM377.897 38.36C375.297 38.36 373.327 37.64 371.987 36.2C370.647 34.76 369.977 32.8 369.977 30.32C369.977 29.06 370.147 27.93 370.487 26.93C370.847 25.91 371.347 25.05 371.987 24.35C372.647 23.63 373.437 23.09 374.357 22.73C375.297 22.35 376.347 22.16 377.507 22.16C378.667 22.16 379.707 22.35 380.627 22.73C381.547 23.09 382.327 23.61 382.967 24.29C383.607 24.97 384.097 25.8 384.437 26.78C384.797 27.74 384.977 28.82 384.977 30.02V31.34H374.387V31.61C374.387 32.61 374.697 33.42 375.317 34.04C375.937 34.64 376.847 34.94 378.047 34.94C378.967 34.94 379.757 34.77 380.417 34.43C381.077 34.07 381.647 33.6 382.127 33.02L384.527 35.63C383.927 36.37 383.087 37.01 382.007 37.55C380.927 38.09 379.557 38.36 377.897 38.36ZM377.537 25.34C376.577 25.34 375.807 25.64 375.227 26.24C374.667 26.82 374.387 27.61 374.387 28.61V28.85H380.627V28.61C380.627 27.59 380.347 26.79 379.787 26.21C379.247 25.63 378.497 25.34 377.537 25.34ZM392.825 38L387.275 22.52H391.955L393.965 29.15L395.435 34.31H395.675L397.145 29.15L399.155 22.52H403.655L398.105 38H392.825ZM413.873 38.36C411.273 38.36 409.303 37.64 407.963 36.2C406.623 34.76 405.953 32.8 405.953 30.32C405.953 29.06 406.123 27.93 406.463 26.93C406.823 25.91 407.323 25.05 407.963 24.35C408.623 23.63 409.413 23.09 410.333 22.73C411.273 22.35 412.323 22.16 413.483 22.16C414.643 22.16 415.683 22.35 416.603 22.73C417.523 23.09 418.303 23.61 418.943 24.29C419.583 24.97 420.073 25.8 420.413 26.78C420.773 27.74 420.953 28.82 420.953 30.02V31.34H410.363V31.61C410.363 32.61 410.673 33.42 411.293 34.04C411.913 34.64 412.823 34.94 414.023 34.94C414.943 34.94 415.733 34.77 416.393 34.43C417.053 34.07 417.623 33.6 418.103 33.02L420.503 35.63C419.903 36.37 419.063 37.01 417.983 37.55C416.903 38.09 415.533 38.36 413.873 38.36ZM413.513 25.34C412.553 25.34 411.783 25.64 411.203 26.24C410.643 26.82 410.363 27.61 410.363 28.61V28.85H416.603V28.61C416.603 27.59 416.323 26.79 415.763 26.21C415.223 25.63 414.473 25.34 413.513 25.34ZM424.481 34.55H429.221V19.25H424.481V15.8H433.661V34.55H438.401V38H424.481V34.55ZM449.43 38.36C448.23 38.36 447.15 38.18 446.19 37.82C445.23 37.44 444.41 36.9 443.73 36.2C443.07 35.5 442.56 34.65 442.2 33.65C441.84 32.65 441.66 31.52 441.66 30.26C441.66 29 441.84 27.87 442.2 26.87C442.56 25.87 443.07 25.02 443.73 24.32C444.41 23.62 445.23 23.09 446.19 22.73C447.15 22.35 448.23 22.16 449.43 22.16C450.63 22.16 451.71 22.35 452.67 22.73C453.63 23.09 454.44 23.62 455.1 24.32C455.78 25.02 456.3 25.87 456.66 26.87C457.02 27.87 457.2 29 457.2 30.26C457.2 31.52 457.02 32.65 456.66 33.65C456.3 34.65 455.78 35.5 455.1 36.2C454.44 36.9 453.63 37.44 452.67 37.82C451.71 38.18 450.63 38.36 449.43 38.36ZM449.43 35.06C450.43 35.06 451.21 34.75 451.77 34.13C452.33 33.51 452.61 32.63 452.61 31.49V29.03C452.61 27.89 452.33 27.01 451.77 26.39C451.21 25.77 450.43 25.46 449.43 25.46C448.43 25.46 447.65 25.77 447.09 26.39C446.53 27.01 446.25 27.89 446.25 29.03V31.49C446.25 32.63 446.53 33.51 447.09 34.13C447.65 34.75 448.43 35.06 449.43 35.06ZM460.188 22.52H464.628V25.34H464.838C465.218 24.42 465.768 23.66 466.488 23.06C467.208 22.46 468.188 22.16 469.428 22.16C470.288 22.16 471.068 22.32 471.768 22.64C472.488 22.96 473.098 23.45 473.598 24.11C474.118 24.77 474.518 25.61 474.798 26.63C475.098 27.65 475.248 28.86 475.248 30.26C475.248 31.66 475.098 32.87 474.798 33.89C474.518 34.91 474.118 35.75 473.598 36.41C473.098 37.07 472.488 37.56 471.768 37.88C471.068 38.2 470.288 38.36 469.428 38.36C468.188 38.36 467.208 38.07 466.488 37.49C465.768 36.89 465.218 36.12 464.838 35.18H464.628V44H460.188V22.52ZM467.508 34.91C468.508 34.91 469.278 34.61 469.818 34.01C470.358 33.39 470.628 32.54 470.628 31.46V29.06C470.628 27.98 470.358 27.14 469.818 26.54C469.278 25.92 468.508 25.61 467.508 25.61C466.728 25.61 466.048 25.8 465.468 26.18C464.908 26.56 464.628 27.16 464.628 27.98V32.54C464.628 33.36 464.908 33.96 465.468 34.34C466.048 34.72 466.728 34.91 467.508 34.91ZM485.826 38.36C483.226 38.36 481.256 37.64 479.916 36.2C478.576 34.76 477.906 32.8 477.906 30.32C477.906 29.06 478.076 27.93 478.416 26.93C478.776 25.91 479.276 25.05 479.916 24.35C480.576 23.63 481.366 23.09 482.286 22.73C483.226 22.35 484.276 22.16 485.436 22.16C486.596 22.16 487.636 22.35 488.556 22.73C489.476 23.09 490.256 23.61 490.896 24.29C491.536 24.97 492.026 25.8 492.366 26.78C492.726 27.74 492.906 28.82 492.906 30.02V31.34H482.316V31.61C482.316 32.61 482.626 33.42 483.246 34.04C483.866 34.64 484.776 34.94 485.976 34.94C486.896 34.94 487.686 34.77 488.346 34.43C489.006 34.07 489.576 33.6 490.056 33.02L492.456 35.63C491.856 36.37 491.016 37.01 489.936 37.55C488.856 38.09 487.486 38.36 485.826 38.36ZM485.466 25.34C484.506 25.34 483.736 25.64 483.156 26.24C482.596 26.82 482.316 27.61 482.316 28.61V28.85H488.556V28.61C488.556 27.59 488.276 26.79 487.716 26.21C487.176 25.63 486.426 25.34 485.466 25.34ZM496.615 34.55H500.185V25.97H496.615V22.52H504.625V26.9H504.835C504.975 26.34 505.165 25.8 505.405 25.28C505.665 24.74 505.985 24.27 506.365 23.87C506.765 23.45 507.245 23.12 507.805 22.88C508.365 22.64 509.025 22.52 509.785 22.52H511.255V26.6H507.955C506.855 26.6 506.025 26.93 505.465 27.59C504.905 28.23 504.625 29.02 504.625 29.96V34.55H509.725V38H496.615V34.55ZM520.663 30.71L518.953 23.15V17.06H523.813V23.15L522.103 30.71H520.663ZM521.383 38.36C520.303 38.36 519.543 38.13 519.103 37.67C518.663 37.21 518.443 36.66 518.443 36.02V35.06C518.443 34.44 518.663 33.9 519.103 33.44C519.563 32.98 520.323 32.75 521.383 32.75C522.443 32.75 523.193 32.98 523.633 33.44C524.093 33.9 524.323 34.44 524.323 35.06V36.02C524.323 36.66 524.103 37.21 523.663 37.67C523.223 38.13 522.463 38.36 521.383 38.36Z" fill="white"/>
</svg>